<?xml version="1.0" encoding="UTF-8"?>
<svg width="17px" height="15px" viewBox="0 0 17 15" version="1.1" xmlns="http://www.w3.org/2000/svg" xmlns:xlink="http://www.w3.org/1999/xlink">
    <title>Icon / Black / Nav 3</title>
    <g id="Components" stroke="none" stroke-width="1" fill="none" fill-rule="evenodd" stroke-linecap="round" stroke-linejoin="round">
        <g transform="translate(-857.500000, -1305.500000)" id="Icon-/-Black-/-Nav-3" stroke="#363837">
            <g transform="translate(858.000000, 1306.000000)" id="Icon-3">
                <polyline id="Rectangle" points="13.3333333 8 14 14 2 14 2.66666667 8"></polyline>
                <path d="M8,0 C9.31077568,0 10.5019051,0.468243553 11.3841098,1.23171825 C11.6784274,1.16206257 11.9883247,1.125 12.3076923,1.125 C14.3468975,1.125 16,2.63603897 16,4.5 C16,6.36396103 14.3468975,7.875 12.3076923,7.875 C11.9883247,7.875 11.6784274,7.83793743 11.3828674,7.7682611 C10.5019051,8.53175645 9.31077568,9 8,9 C6.68922432,9 5.49809488,8.53175645 4.61589021,7.76828175 C4.3215726,7.83793743 4.01167528,7.875 3.69230769,7.875 C1.65310246,7.875 0,6.36396103 0,4.5 C0,2.63603897 1.65310246,1.125 3.69230769,1.125 C4.01167528,1.125 4.3215726,1.16206257 4.61713258,1.2317389 C5.49809488,0.468243553 6.68922432,0 8,0 Z" id="Combined-Shape"></path>
            </g>
        </g>
    </g>
</svg>