<?xml version="1.0" encoding="UTF-8"?>
<svg width="17px" height="17px" viewBox="0 0 17 17" version="1.1" xmlns="http://www.w3.org/2000/svg" xmlns:xlink="http://www.w3.org/1999/xlink">
    <title>Icon / Black / Settings</title>
    <g id="Components" stroke="none" stroke-width="1" fill="none" fill-rule="evenodd">
        <g transform="translate(-1025.500000, -1304.500000)" id="Icon-/-Black-/-Settings" stroke="#363837">
            <g transform="translate(1026.000000, 1305.000000)">
                <path d="M6,14.7101213 C5.45933324,14.549211 4.94604222,14.3247368 4.46879285,14.0453646 L4.30733125,14.2068262 C3.91680696,14.5973505 3.28364198,14.5973505 2.89311769,14.2068262 L1.79317381,13.1068823 C1.40264952,12.716358 1.40264952,12.083193 1.79317381,11.6926687 L1.95463541,11.5312071 C1.67526319,11.0539578 1.45078897,10.5406668 1.28987868,10 L1,10 C0.44771525,10 0,9.55228475 0,9 L0,7 C0,6.44771525 0.44771525,6 1,6 L1.28987868,6 C1.45078897,5.45933324 1.67526319,4.94604222 1.95463541,4.46879285 L1.79317381,4.30733125 C1.40264952,3.91680696 1.40264952,3.28364198 1.79317381,2.89311769 L2.89311769,1.79317381 C3.28364198,1.40264952 3.91680696,1.40264952 4.30733125,1.79317381 L4.46879285,1.95463541 C4.94604222,1.67526319 5.45933324,1.45078897 6,1.28987868 L6,1 C6,0.44771525 6.44771525,0 7,0 L9,0 C9.55228475,0 10,0.44771525 10,1 L10,1.28987868 C10.5406668,1.45078897 11.0539578,1.67526319 11.5312071,1.95463541 L11.6926687,1.79317381 C12.083193,1.40264952 12.716358,1.40264952 13.1068823,1.79317381 L14.2068262,2.89311769 C14.5973505,3.28364198 14.5973505,3.91680696 14.2068262,4.30733125 L14.0453646,4.46879285 C14.3247368,4.94604222 14.549211,5.45933324 14.7101213,6 L15,6 C15.5522847,6 16,6.44771525 16,7 L16,9 C16,9.55228475 15.5522847,10 15,10 L14.7101213,10 C14.549211,10.5406668 14.3247368,11.0539578 14.0453646,11.5312071 L14.2068262,11.6926687 C14.5973505,12.083193 14.5973505,12.716358 14.2068262,13.1068823 L13.1068823,14.2068262 C12.716358,14.5973505 12.083193,14.5973505 11.6926687,14.2068262 L11.5312071,14.0453646 C11.0539578,14.3247368 10.5406668,14.549211 10,14.7101213 L10,15 C10,15.5522847 9.55228475,16 9,16 L7,16 C6.44771525,16 6,15.5522847 6,15 L6,14.7101213 L6,14.7101213 Z" id="Path" stroke-linecap="round" stroke-linejoin="round"></path>
                <circle id="Oval" cx="8" cy="8" r="4"></circle>
            </g>
        </g>
    </g>
</svg>